<?xml version="1.0" encoding="utf-8"?>
<!-- Generator: Adobe Illustrator 15.0.0, SVG Export Plug-In . SVG Version: 6.00 Build 0)  -->
<!DOCTYPE svg PUBLIC "-//W3C//DTD SVG 1.1//EN" "http://www.w3.org/Graphics/SVG/1.1/DTD/svg11.dtd">
<svg version="1.1" id="Layer_1" xmlns="http://www.w3.org/2000/svg" xmlns:xlink="http://www.w3.org/1999/xlink" x="0px" y="0px"
	 width="1843.332px" height="1557.071px" viewBox="0 0 1843.332 1557.071" enable-background="new 0 0 1843.332 1557.071"
	 xml:space="preserve">
<g id="Layer_2">
</g>
<g id="Layer_1_1_">
	<rect x="-99" y="-171.861" fill="none" width="2005" height="2005"/>
	<circle fill="#F5F5FE" cx="903.5" cy="912.639" r="705.461"/>
	<g>
		<path fill="#0B2D4E" d="M1170.381,1261.413c-46.33,16.393-102.204,14.716-144.358-12.324
			c-41.438-26.581-79.188-45.774-130.174-44.845c-45.556,0.831-83.229,25.456-127.354,30.697
			c-34.995,4.155-70.546-11.102-95.908-35.567c-24.76-23.884-41.201-60.3-30.436-92.973c5.637-17.107,17.956-31.223,24.986-47.806
			c16.213-38.246-26.479-61.319-15.862-101.578c9.029-34.239,46.6-58.66,46.04-94.066c-0.41-25.917-20.475-46.004-27.54-69.982
			c-7.128-24.19-5.553-51.288,7.021-73.388c9.238-16.238,24.083-29.531,41.283-36.861c15.447-6.582,32.705-6.706,44.65-20.205
			c21.287-24.056,29.096-50.128,58.304-67.717c24.728-14.89,57.384-15.836,85.751-13.236
			c63.036,5.778,124.218,39.052,159.724,92.042c12.583,18.781,21.664,37.998,21.979,60.317c0.346,24.4,0.337,48.944,15.286,69.688
			c12.552,17.416,32.699,27.606,52.678,35.465c19.979,7.857,40.916,14.218,58.454,26.6c17.539,12.382,31.467,32.581,29.421,53.952
			c-1.713,17.886-14.094,33.428-15.741,51.32c-2.997,32.534,28.347,56.166,47.669,82.512
			c27.054,36.888,31.538,89.048,11.176,130.011c-23.443,47.163-66.037,57.798-110.666,75.547
			C1174.658,1259.852,1172.53,1260.652,1170.381,1261.413z"/>
		<g>
			<path fill="#73B8D4" d="M833.539,653.127c15.323-8.951,33.129-13.054,50.818-13.759c17.755-0.679,35.546,1.604,52.785,5.895
				c34.572,8.703,66.058,29.28,88.016,57.581c10.854,14.232,19.253,30.422,24.232,47.694c5.006,17.324,6.03,35.438,5.824,53.162
				c-0.178,17.761-1.44,35.425-0.855,52.898c0.366,8.676,1.44,17.337,4.081,25.43c2.595,8.063,7.099,15.505,13.761,20.357
				c6.574,4.987,15.018,7.098,23.553,8.117c8.562,1.015,17.501,1.066,26.424,2.26c17.656,2.375,35.609,6.575,50.995,16.702
				c7.558,5.051,14.359,12.087,17.666,20.972c3.426,8.885,2.735,18.585,0.443,27.438c-2.667,8.953-7.743,16.462-11.274,24.29
				c-3.539,7.835-5.81,16.271-6.578,24.855c-1.632,17.282,2.804,34.608,8.949,51.004c6.035,16.525,13.286,32.814,17.519,50.175
				c2.071,8.665,3.335,17.584,3.191,26.526c-0.107,8.939-1.737,17.839-4.648,26.244c-5.81,16.84-16.761,31.769-30.925,42.355
				c13.914-10.916,24.413-26.016,29.751-42.746c5.592-16.754,4.849-34.927,0.229-51.779c-4.423-16.995-11.793-33.09-18.108-49.658
				c-6.411-16.459-11.302-34.275-9.834-52.451c0.69-9.029,2.959-17.943,6.588-26.261c3.689-8.278,8.615-15.676,10.944-23.782
				c2.054-8.178,2.599-16.881-0.441-24.616c-2.92-7.757-8.973-14.062-16.034-18.742c-14.339-9.396-31.847-13.524-49.021-15.729
				c-8.615-1.124-17.413-1.127-26.418-2.144c-8.889-1.034-18.315-3.21-25.982-8.976c-7.696-5.663-12.688-14.184-15.439-22.875
				c-2.811-8.757-3.862-17.822-4.208-26.783c-0.517-17.888,0.837-35.549,1.08-53.139c0.28-17.552-0.664-35.16-5.431-51.922
				c-4.809-16.719-12.739-32.513-23.117-46.539c-21.028-27.871-51.653-48.482-85.554-57.543
				c-16.929-4.635-34.521-7.312-52.125-7.045C866.844,640.892,849.069,644.537,833.539,653.127z"/>
		</g>
		<path fill="#061F33" d="M1056.546,1045.259c1.645,39.98-7.623,70.007-44.188,89.782c-29.121,15.75-63.99,20.916-96.128,21.708
			c-53.897,1.328-113.955-12.572-154.272-50.433c-7.318-6.871-14.341-15.294-14.869-25.317c-0.481-9.112,4.531-17.696,4.974-26.812
			c0.744-15.369-11.206-28.103-16.548-42.533c-7.057-19.061-2.26-40.339,4.079-59.648c6.338-19.311,14.271-38.807,13.319-59.107
			c-1.234-26.334-17.06-49.326-29.729-72.446s-22.641-51.246-11.815-75.284c7.135-15.841,24.148-28.021,41.534-29.949
			c18.367-2.038,34.87,18.95,46.636,30.513c15.832,15.558,33.471,29.276,52.447,40.792c26.245,15.926,55.059,27.673,79.743,45.921
			c14.938,11.043,30.962,26.202,38.094,43.793c8.036,19.823-6.036,39.013,10.979,57.245c10.978,11.764,27.835,15.765,41.107,24.856
			C1050.323,977.806,1055.248,1013.694,1056.546,1045.259z"/>
		<path fill="#26A8D1" d="M758.892,1268.97c37.843-58.315,61.393-129.892,28.51-195.735c-3.333-6.674-7.341-13.955-14.42-16.31
			c-15.223-5.062-35.874,0.381-49.111,8.147c-45.918,26.94-74.017,77.638-99.813,122.745
			c-26.801,46.861-50.075,95.644-77.008,142.433c-10.908,18.95-21.925,38.154-27.775,59.224
			c-5.125,18.454-5.687,39.585,1.306,57.644c30.232,78.067,113.365-17.561,138.668-46.45
			C695.356,1359.439,729.073,1314.944,758.892,1268.97z"/>
		<g>
			<g>
				<path id="SVGID_1_" fill="#3DC8E8" d="M1101.318,1203.727c10.877-46.062,16.519-93.186-8.135-124.562
					c-11.133-14.17-30.967-24.037-47.198-31.053c-31.66-13.686-64.028-32.08-97.919-38.044
					c-35.731-6.288-75.472-10.164-111.084-1.171c-22.619,5.712-43.782,16.283-64.007,27.688
					c-17.551,9.896-39.083,18.416-47.604,36.832c-20.646,44.626-38.972,91.177-54.171,137.929
					c-12.717,39.117-26.675,80.119-6.637,119.764c6.493,12.846,15.925,23.842,23.351,36.113
					c8.272,13.672,11.358,26.515,12.443,42.284c2.475,35.98,1.512,72.072,1.409,108.104c-0.03,10.384,0.105,21.178,4.653,30.515
					c8.965,18.407,33.324,18.664,50.872,18.634c57.839-0.101,115.677-0.199,173.515-0.301c24.063-0.041,42.451,2.905,65.042,7.549
					c19.013,3.907,35.335-5.688,44.456-23.378c8.635-16.747,9.292-36.305,10.218-55.124c3.601-73.221,13.987-146.104,30.986-217.416
					C1086.321,1257.899,1094.762,1231.493,1101.318,1203.727z"/>
			</g>
			<g>
				<defs>
					<path id="SVGID_2_" d="M1101.318,1203.727c10.877-46.062,16.519-93.186-8.135-124.562
						c-11.133-14.17-30.967-24.037-47.198-31.053c-31.66-13.686-64.028-32.08-97.919-38.044
						c-35.731-6.288-75.472-10.164-111.084-1.171c-22.619,5.712-43.782,16.283-64.007,27.688
						c-17.551,9.896-39.083,18.416-47.604,36.832c-20.646,44.626-38.972,91.177-54.171,137.929
						c-12.717,39.117-26.675,80.119-6.637,119.764c6.493,12.846,15.925,23.842,23.351,36.113
						c8.272,13.672,11.358,26.515,12.443,42.284c2.475,35.98,1.512,72.072,1.409,108.104c-0.03,10.384,0.105,21.178,4.653,30.515
						c8.965,18.407,33.324,18.664,50.872,18.634c57.839-0.101,115.677-0.199,173.515-0.301c24.063-0.041,42.451,2.905,65.042,7.549
						c19.013,3.907,35.335-5.688,44.456-23.378c8.635-16.747,9.292-36.305,10.218-55.124
						c3.601-73.221,13.987-146.104,30.986-217.416C1086.321,1257.899,1094.762,1231.493,1101.318,1203.727z"/>
				</defs>
				<clipPath id="SVGID_4_">
					<use xlink:href="#SVGID_2_"  overflow="visible"/>
				</clipPath>
				<path clip-path="url(#SVGID_4_)" fill="#26A8D1" d="M967.36,1069.739c13.615-22.903,16.707-51.521-1.126-73.585
					c-8.155-10.09-22.578-11.222-34.911-11.45c-24.274-0.454-48.606,2.125-72.249,7.655c-22.533,5.271-45.51,14.198-55.27,36.951
					c-7.251,16.903-4.72,36.459,4.834,51.923c8.677,14.046,23.069,24.44,39.132,28.266c25.934,6.174,56.289,5.343,81.034-5.045
					C944.304,1097.947,958.209,1085.134,967.36,1069.739z"/>
			</g>
			<g>
				<defs>
					<path id="SVGID_6_" d="M1101.318,1203.727c10.877-46.062,16.519-93.186-8.135-124.562
						c-11.133-14.17-30.967-24.037-47.198-31.053c-31.66-13.686-64.028-32.08-97.919-38.044
						c-35.731-6.288-75.472-10.164-111.084-1.171c-22.619,5.712-43.782,16.283-64.007,27.688
						c-17.551,9.896-39.083,18.416-47.604,36.832c-20.646,44.626-38.972,91.177-54.171,137.929
						c-12.717,39.117-26.675,80.119-6.637,119.764c6.493,12.846,15.925,23.842,23.351,36.113
						c8.272,13.672,11.358,26.515,12.443,42.284c2.475,35.98,1.512,72.072,1.409,108.104c-0.03,10.384,0.105,21.178,4.653,30.515
						c8.965,18.407,33.324,18.664,50.872,18.634c57.839-0.101,115.677-0.199,173.515-0.301c24.063-0.041,42.451,2.905,65.042,7.549
						c19.013,3.907,35.335-5.688,44.456-23.378c8.635-16.747,9.292-36.305,10.218-55.124
						c3.601-73.221,13.987-146.104,30.986-217.416C1086.321,1257.899,1094.762,1231.493,1101.318,1203.727z"/>
				</defs>
				<clipPath id="SVGID_7_">
					<use xlink:href="#SVGID_6_"  overflow="visible"/>
				</clipPath>
				<path clip-path="url(#SVGID_7_)" fill="#26A8D1" d="M1121.807,1414.903c-0.179-35.318-0.357-70.639-0.536-105.957
					c-0.063-12.296,7.921-87.142-11.206-86.289c-2.063,0.092-3.954,1.155-5.634,2.356c-9.516,6.808-14.405,18.205-18.854,29.026
					c-13.938,33.927-25.646,88.238-54.664,111.99c-29.497,24.144-74.854,34.321-111.509,40.116
					c-42.807,6.77-86.316,7.271-129.575,9.902c-27.98,1.702-58.851,5.73-77.231,26.896c-13.126,15.112-19.81,37.771-26.82,56.236
					c-6.125,16.139-11.004,35.31,1.427,49.924c5.306,6.236,12.667,10.33,20.073,13.82c26.996,12.729,56.504,19.143,85.939,24.069
					c82.381,13.788,166.348,16.652,249.778,12.677c17.838-0.85,37.181-2.627,50.339-14.702c9.789-8.984,14.404-22.208,17.686-35.084
					C1122.197,1506.02,1122.035,1460.17,1121.807,1414.903z"/>
			</g>
		</g>
		<path fill="#9B87FF" d="M727.34,811.719c-31.561,32.472-2.934,111.813,47.396,100.331c54.082-12.338,45.946-96.619-2.958-110.456
			C752.707,796.199,737.498,801.268,727.34,811.719z"/>
		<path fill="none" stroke="#0B2D4E" stroke-width="4" stroke-miterlimit="10" d="M1158.149,1256.081
			c31.632,4.033,64.952,1.257,93.206-13.528c35.971-18.822,53.966-53.338,54.712-93.046c0.54-28.765-5.027-58.749-22.393-81.688
			c-18.881-24.941-50.524-40.276-62.266-69.271c-7.604-18.776-5.781-44.342,9.256-58.87c9.571-9.249,17.059-19.678,15.831-33.543
			c-1.809-20.396-16.729-39.994-33.397-51.012c-24.441-16.153-54.842-22.063-83.441-25.697c-19.365-2.46-38.666-7.903-44.659-28.764
			c-3.232-11.254-2.594-23.127-3.197-34.694c-1.288-24.663-3.095-49.33-6.779-73.766c-4.247-28.17-22.54-55.417-42.94-74.827
			c-2.93-2.787-5.971-5.455-9.113-8c-52.598-42.606-149.955-57.702-207.969-18.213c-19.781,13.464-33.64,34.068-38.047,57.625
			c-2.944,15.742-7.212,19.13-22.592,23.903c-27.94,8.671-59.649,14.825-81.84,35.319c-17.357,16.032-25.34,40.309-23.029,63.601
			c2.95,29.732,23.739,43.96,38.625,67.525c15.196,24.056,3.249,54.327-14.401,74.182c-13.593,15.288-32.881,26.456-40.562,45.418
			c-7.065,17.443-2.387,37.61,6.146,54.389c3.457,6.796,7.525,13.288,10.581,20.274c9.299,21.263,8.339,46.746-2.534,67.25"/>
		<path fill="#3DC8E8" d="M1247.816,1302.091c9.675,17.451,19.289,34.931,28.729,52.521c19.16,35.699,54.737,115.021-2.219,134.62
			c-28.694,9.873-45.109,0.219-64.078-20.688c-71.762-79.09-132.951-167.742-181.439-262.866
			c-18.048-35.404-65.97-127.668-7.763-148.749c18.377-6.655,39.563-5.105,56.777,4.152c7.872,4.233,14.853,9.937,21.522,15.885
			c42.006,37.462,71.918,85.797,98.529,134.82C1214.323,1242.083,1231.16,1272.046,1247.816,1302.091z"/>
		<path fill="#F8A17A" d="M918.044,1081.416c17.329-5.561,31.604-16.333,36.953-33.459c4.854-15.544-2.799-33.027-4.161-48.711
			c-1.308-15.03-1.477-30.147-0.488-45.198c0.914-13.915,2.243-28.409,0.104-42.278c-1.216-7.927-5.566-6.569-13.587-9.721
			c-8.013-3.146-17.011-3.179-25.728-3.157c-17.841,0.044-64.349-1.251-75.373,14.405c-5.063,7.188-5.459,16.231-5.7,24.786
			c-0.291,10.332-2.12,23.709-3.813,38.122c-0.755,6.417-0.289,12.813-1.271,19.183c-1.101,7.138-3.81,13.977-6.184,20.813
			c-8.975,25.85-0.571,50.434,27.383,62.27C866.236,1086.96,894.87,1088.849,918.044,1081.416z"/>
		<path fill="#E5785C" d="M950.36,911.769c-1.215-7.927-5.565-6.569-13.586-9.721c-8.014-3.146-17.011-3.179-25.728-3.157
			c-17.842,0.044-64.349-1.251-75.373,14.405c-5.063,7.188-5.46,16.231-5.701,24.786c-0.29,10.331-2.12,23.709-3.813,38.122
			c-0.753,6.417-0.288,12.812-1.271,19.183c-0.837,5.435-2.609,10.694-4.453,15.913c17.294,6.423,36.826,7.854,54.868,3.412
			c32.501-8.001,57.115-28.229,74.669-54.53c0.092-2.046,0.149-4.092,0.284-6.136C951.172,940.132,952.5,925.638,950.36,911.769z"/>
		<path fill="#F8A17A" d="M976.263,809.917c-0.144-23.823-3.431-46.421-9.56-65.187c-26.445-80.966-127.447-100.969-188.269-42.851
			c-67.824,64.813-41.869,219.777,29.571,274.212c19.101,14.555,45.059,19.668,68.257,13.446
			C946.452,970.716,976.704,884.339,976.263,809.917z"/>
		<path fill="#F8A17A" d="M962.989,811.918c31.072-16.99,40.639,26.033,35.292,47.444c-2.208,8.842-5.701,17.467-11.188,24.742
			c-7.393,9.799-28.537,26.054-40.717,15.334c-5.527-4.864-6.098-13.13-6.268-20.489
			C939.653,859.211,941.926,823.435,962.989,811.918z"/>
		<g>
			<path fill="#8070F2" d="M861.776,953.639c-7.617,0-15.288-0.562-22.966-1.693l1.373-9.319
				c27.89,4.112,55.701,0.227,80.431-11.233c6.719-3.111,12.41-6.384,17.405-10c9.081-6.577,16.877-15.172,22.541-24.851
				l8.131,4.759c-6.317,10.797-15.015,20.384-25.146,27.724c-5.491,3.976-11.697,7.547-18.971,10.917
				C904.997,949.01,883.625,953.639,861.776,953.639z"/>
		</g>
		<g>
			<path fill="#8070F2" d="M811.571,935.199c11.361-9.75,36.631-8.915,44.962,1.207c6.175,7.504,4.289,17.026-2.508,23.371
				c-8.043,7.504-17.99,7.066-28.021,4.806C813.444,961.751,797.877,946.951,811.571,935.199z"/>
		</g>
		<path fill="#E5785C" d="M976.421,748.066c-27.845-85.243-134.182-106.303-198.214-45.113
			c-14.146,13.518-24.358,30.795-31.15,50.201c1.428,2.208,3.023,4.422,4.938,6.64c8.784,10.176,20.912,16.825,33.114,22.466
			c35.646,16.479,74.066,26.149,112.666,33.382c2.844,0.532,5.705,1.059,8.562,1.622c10.626,2.097,21.174,4.716,30.45,10.185
			c26.233,15.463,14.952,49.473,34.17,64.376c1.739,1.349,3.495,2.219,5.253,2.838c7.099-25.387,10.428-52.343,10.274-77.963
			C986.335,791.615,982.873,767.823,976.421,748.066z"/>
		<path fill="#0B2D4E" d="M909.088,807.528c10.155,3.764,20.149,8.032,28.438,14.909c23.432,19.449,6.869,51.224,23.465,69.002
			c14.703,15.752,37.032-5.063,42.881-19.611c10.775-26.802,10.143-56.63,9.349-85.506c-0.443-16.104-0.923-32.438-5.645-47.838
			c-5.148-16.802-15.181-31.793-27.126-44.684c-34.484-37.213-86.531-56.557-136.922-53.383
			c-39.404,2.482-108.531,35.596-77.639,85.762c7.049,11.447,17.96,19.944,29.107,27.459
			c32.562,21.953,68.947,37.627,105.899,50.923C903.617,805.542,906.358,806.517,909.088,807.528z"/>
		<path fill="#9B87FF" d="M976.041,799.679c-43.862,11.248-60.813,93.876-11.882,110.325c52.58,17.676,89.591-58.479,55.079-95.789
			C1005.78,799.666,990.158,796.059,976.041,799.679z"/>
		<path fill="#8070F2" d="M990.419,810.284c-30.278,4.865-48.931,69.189-17.727,86.896c33.529,19.023,64.996-38.261,45.271-71.254
			C1010.272,813.058,1000.164,808.718,990.419,810.284z"/>
		<g>
			<path fill="#9B87FF" d="M996.531,805.46l-11.698-1.354c7.936-68.577,4.555-156.198-56.611-184.186
				c-28.967-13.253-111.925-27.957-148.432,21.312c-4.392,4.932-7.331,9.065-7.331,9.065
				c22.641-69.864,129.396-55.392,160.66-41.086C1000.72,640.143,1004.914,733.005,996.531,805.46z"/>
		</g>
		<g>
			<rect x="536.48" y="1452.855" fill="#B8D1CE" width="240.519" height="47.089"/>
			<path fill="#B8D1CE" d="M577.753,1457.423l-60.701-309.028c-1.604-8.163-8.761-14.051-17.078-14.051H96.447
				c-5.843,0-10.848,2.891-13.985,7.176l-0.053-0.052L63.774,1163.5l16.53-3.626l59.765,304.259
				c1.604,8.163,8.76,14.051,17.079,14.051h403.528C571.634,1478.183,579.865,1468.176,577.753,1457.423z"/>
			<path fill="#FFFFFF" d="M138.698,1499.944h403.528c10.958,0,19.19-10.007,17.078-20.76l-60.701-309.028
				c-1.604-8.163-8.76-14.051-17.079-14.051H77.996c-10.958,0-19.19,10.007-17.078,20.76l60.701,309.029
				C123.223,1494.057,130.378,1499.944,138.698,1499.944z"/>
			<path fill="#B8D1CE" d="M265.626,1320.37c3.723,20.846,23.639,37.744,44.483,37.744c20.846,0,34.485-16.898,30.465-37.744
				c-4.02-20.846-23.936-37.744-44.483-37.744C275.544,1282.625,261.904,1299.524,265.626,1320.37z"/>
			<path fill="#3F91AC" d="M60.586,1170.483"/>
		</g>
		<g>
			<g>
				<g>
					<path fill="#FFFFFF" d="M1423.892,1315.447c4.446-9.193,3.651-18.858,0.847-27.623c-2.694-8.96-7.507-16.678-12.717-25.114
						c-5.265-8.318-10.639-17.387-13.93-28.306c-3.338-11.041-2.386-23.419,0.685-33.889c6.629-21.355,20.204-37.095,29.556-53.193
						c4.686-8.147,8.521-16.422,10.035-25.578c1.703-9.069,1.118-18.729-3.336-27.836c7.726,6.759,11.467,17.714,11.974,28.32
						c0.481,10.72-2.224,21.594-6.333,31.153c-8.117,19.392-20.284,35.136-25.021,52.158c-2.686,8.426-3.346,16.59-1.438,24.762
						c1.593,8.377,5.974,16.833,9.913,26.001c4.182,8.954,8.183,19.301,9.069,29.942
						C1434.1,1296.73,1431.7,1308.579,1423.892,1315.447z"/>
				</g>
			</g>
			<g>
				<g>
					<path fill="#9B87FF" d="M1462.996,1498.958h-69.92c-13.807,0-25-11.193-25-25v-146.771h119.92v146.771
						C1487.996,1487.764,1476.804,1498.958,1462.996,1498.958z"/>
					<path fill="#9B87FF" d="M1496.37,1366.037c-28.756,0-52.067,23.652-52.067,52.832c0,29.179,23.313,52.833,52.067,52.833
						s52.067-23.654,52.067-52.833S1525.127,1366.037,1496.37,1366.037z M1496.37,1452.861c-18.502,0-33.5-15.22-33.5-33.992
						s14.998-33.991,33.5-33.991s33.5,15.219,33.5,33.991S1514.873,1452.861,1496.37,1452.861z"/>
					<path opacity="0.2" fill="#FFFFFF" enable-background="new    " d="M1386.009,1433.758L1386.009,1433.758
						c-3.566,0-6.483-2.917-6.483-6.481v-83.597c0-3.564,2.917-6.482,6.483-6.482l0,0c3.564,0,6.481,2.918,6.481,6.482v83.597
						C1392.49,1430.841,1389.573,1433.758,1386.009,1433.758z"/>
					<path fill="#8070F2" d="M1460.303,1327.186v141.401c0,16.772-13.598,30.37-30.37,30.37h27.694
						c16.772,0,30.369-13.598,30.369-30.37v-141.401H1460.303z"/>
				</g>
			</g>
		</g>
		<g>
			<path fill="#FFC73C" d="M1165.541,729.627h409.313c22.55,0,41-18.45,41-41V472.288c0-22.55-18.45-41-41-41h-409.313
				c-22.551,0-41,18.45-41,41v216.339C1124.541,711.177,1142.99,729.627,1165.541,729.627z"/>
			<polygon fill="#FFC73C" points="1189.209,808.159 1189.209,671.06 1296.582,729.627 			"/>
			<path fill="#FFFFFF" d="M1433.594,593.893h-225.217c-4.95,0-9-4.05-9-9v-8.029c0-4.95,4.05-9,9-9h225.217c4.949,0,9,4.05,9,9
				v8.029C1442.594,589.842,1438.543,593.893,1433.594,593.893z"/>
			<path fill="#FFFFFF" d="M1532.02,593.893h-61.717c-4.949,0-9-4.05-9-9v-8.029c0-4.95,4.051-9,9-9h61.717c4.95,0,9,4.05,9,9v8.029
				C1541.02,589.842,1536.97,593.893,1532.02,593.893z"/>
			<path fill="#FFFFFF" d="M1306.803,508.753h225.217c4.95,0,9,4.05,9,9v8.03c0,4.95-4.05,9-9,9h-225.217c-4.95,0-9-4.05-9-9v-8.03
				C1297.803,512.803,1301.853,508.753,1306.803,508.753z"/>
			<path fill="#FFFFFF" d="M1208.377,508.753h61.717c4.949,0,9,4.05,9,9v8.03c0,4.95-4.051,9-9,9h-61.717c-4.95,0-9-4.05-9-9v-8.03
				C1199.377,512.803,1203.427,508.753,1208.377,508.753z"/>
			<path fill="#FFFFFF" d="M1361.198,647.931h-152.82c-4.95,0-9-4.05-9-9v-8.029c0-4.95,4.05-9,9-9h152.82c4.95,0,9,4.05,9,9v8.029
				C1370.198,643.881,1366.148,647.931,1361.198,647.931z"/>
		</g>
		<g>
			<g>
				<g>
					<path id="SVGID_3_" fill="#3DC8E8" d="M1595.671,814.152c-11.005-0.064-21.686-1.479-29.224-12.274
						c-14.794-21.188-37.377-40.208-62.702-18.663c-14.605,12.426-3.623,37.989-16.193,50.285
						c-11.116,10.874-25.253,9.076-30.938,27.125c-8.363,26.55,17.997,49.814,26.459,72.773c7.103,19.267-8.87,26.608-16.045,41.622
						c-5.532,11.574-2.688,23.973,3.34,35.037c10.63,19.513,34.197,35.222,28.737,60.486c-4.557,21.086-8.794,39.878,9.812,55.86
						c12.755,10.955,36.42,20.938,34.615,41.215c-0.639,7.175-5.604,13.291-6.966,20.365c-2.154,11.194,5.097,22.091,13.52,29.773
						c19.161,17.483,35.991,33.973,50.346,55.968c6.133,9.399,30.688,30.623,20.874,43.474
						c17.838-23.357,36.688-46.01,52.896-70.564c13.331-20.195,33.426-49.734,19.746-74.609
						c-4.254-7.736-12.166-13.502-14.335-22.063c-3.914-15.457,11.272-29.788,16.919-42.938
						c8.863-20.646,2.358-44.626-13.256-60.124c-7.388-7.333-15.404-15.396-16.49-25.749c-1.185-11.306,5.903-21.846,9.118-32.271
						c2.965-9.613,4.813-19.833,5.896-29.817c0.764-7.051,1.059-14.266-0.601-21.16c-3.152-13.113-14.963-20.403-23.704-29.708
						c-20.81-22.152-9.87-48.199-18.962-73.943C1630.37,811.139,1612.638,814.251,1595.671,814.152z"/>
				</g>
				<g>
					<defs>
						<path id="SVGID_8_" d="M1595.671,814.152c-11.005-0.064-21.686-1.479-29.224-12.274
							c-14.794-21.188-37.377-40.208-62.702-18.663c-14.605,12.426-3.623,37.989-16.193,50.285
							c-11.116,10.874-25.253,9.076-30.938,27.125c-8.363,26.55,17.997,49.814,26.459,72.773
							c7.103,19.267-8.87,26.608-16.045,41.622c-5.532,11.574-2.688,23.973,3.34,35.037c10.63,19.513,34.197,35.222,28.737,60.486
							c-4.557,21.086-8.794,39.878,9.812,55.86c12.755,10.955,36.42,20.938,34.615,41.215c-0.639,7.175-5.604,13.291-6.966,20.365
							c-2.154,11.194,5.097,22.091,13.52,29.773c19.161,17.483,35.991,33.973,50.346,55.968
							c6.133,9.399,30.688,30.623,20.874,43.474c17.838-23.357,36.688-46.01,52.896-70.564
							c13.331-20.195,33.426-49.734,19.746-74.609c-4.254-7.736-12.166-13.502-14.335-22.063
							c-3.914-15.457,11.272-29.788,16.919-42.938c8.863-20.646,2.358-44.626-13.256-60.124
							c-7.388-7.333-15.404-15.396-16.49-25.749c-1.185-11.306,5.903-21.846,9.118-32.271c2.965-9.613,4.813-19.833,5.896-29.817
							c0.764-7.051,1.059-14.266-0.601-21.16c-3.152-13.113-14.963-20.403-23.704-29.708c-20.81-22.152-9.87-48.199-18.962-73.943
							C1630.37,811.139,1612.638,814.251,1595.671,814.152z"/>
					</defs>
					<clipPath id="SVGID_9_">
						<use xlink:href="#SVGID_8_"  overflow="visible"/>
					</clipPath>
					<g clip-path="url(#SVGID_9_)">
						<path fill="none" stroke="#26A8D1" stroke-width="5" stroke-miterlimit="10" d="M1623.518,1343.533
							c7.729-88.564,0.63-177.832-15.73-265.055c-15.606-83.205-36.092-166.696-67.148-245.572
							c-10.262-26.062-21.783-51.64-34.876-76.404"/>
						<path fill="none" stroke="#26A8D1" stroke-width="5" stroke-miterlimit="10" d="M1435.843,875.262
							c43.592,15.388,85.171,36.467,123.347,62.537c9.687,6.614,15.078,8.639,23.152,17.145"/>
						<path fill="none" stroke="#26A8D1" stroke-width="5" stroke-miterlimit="10" d="M1603.014,1049.828
							c-41.84-27.039-89.289-45.354-138.444-53.439"/>
						<path fill="none" stroke="#26A8D1" stroke-width="5" stroke-miterlimit="10" d="M1619.562,1164.076
							c-38.938-33.743-86.403-57.567-136.728-68.628"/>
						<path fill="none" stroke="#26A8D1" stroke-width="5" stroke-miterlimit="10" d="M1580.178,952.026
							c3.043-46.857,14.705-93.143,34.228-135.849"/>
						<path fill="none" stroke="#26A8D1" stroke-width="5" stroke-miterlimit="10" d="M1602.481,1045.965
							c19.784-42.327,48.364-80.518,83.395-111.437"/>
						<path fill="none" stroke="#26A8D1" stroke-width="5" stroke-miterlimit="10" d="M1622.153,1167.325
							c2.734-13.077,7.53-25.722,14.155-37.323c7.707-13.496,17.791-25.466,28.059-37.132c7.396-8.401,14.916-16.691,22.562-24.866"
							/>
					</g>
				</g>
			</g>
			<g>
				<g>
					<path id="SVGID_5_" fill="#26A8D1" d="M1730.805,975.575c7.99,1.477,15.935,1.929,22.896-4.858
						c13.664-13.319,32.679-23.992,48.066-4.857c8.875,11.035-2.63,28.058,4.786,38.717c6.56,9.427,17.062,10.079,18.688,23.958
						c2.394,20.417-19.948,33.644-29.266,49.126c-7.817,12.992,2.751,20.529,5.878,32.413c2.411,9.161-1.368,17.761-7.271,24.952
						c-10.411,12.683-29.682,20.814-29.219,39.897c0.388,15.926,0.859,30.145-14.849,39.161
						c-10.768,6.181-29.314,10.146-30.813,25.105c-0.53,5.293,2.226,10.416,2.232,15.735c0.014,8.418-6.755,15.318-13.927,19.728
						c-16.319,10.028-30.811,19.658-44.267,33.628c-5.75,5.97-26.498,17.966-21.158,28.646
						c-9.706-19.412-20.246-38.452-28.604-58.508c-6.874-16.495-17.36-40.703-3.996-56.854c4.156-5.022,10.694-8.11,13.452-14.021
						c4.979-10.67-4.054-23.168-6.329-33.487c-3.571-16.204,4.466-32.697,17.938-41.777c6.374-4.297,13.305-9.036,15.524-16.396
						c2.425-8.035-1.258-16.662-2.146-24.671c-0.819-7.383-0.745-15.052-0.148-22.444c0.423-5.221,1.207-10.494,3.364-15.267
						c4.104-9.075,13.678-12.729,21.307-18.269c18.16-13.188,13.832-33.597,23.989-51.013
						C1706.051,968.586,1718.483,973.298,1730.805,975.575z"/>
				</g>
				<g>
					<defs>
						<path id="SVGID_10_" d="M1730.805,975.575c7.99,1.477,15.935,1.929,22.896-4.858c13.664-13.319,32.679-23.992,48.066-4.857
							c8.875,11.035-2.63,28.058,4.786,38.717c6.56,9.427,17.062,10.079,18.688,23.958c2.394,20.417-19.948,33.644-29.266,49.126
							c-7.817,12.992,2.751,20.529,5.878,32.413c2.411,9.161-1.368,17.761-7.271,24.952c-10.411,12.683-29.682,20.814-29.219,39.897
							c0.388,15.926,0.859,30.145-14.849,39.161c-10.768,6.181-29.314,10.146-30.813,25.105c-0.53,5.293,2.226,10.416,2.232,15.735
							c0.014,8.418-6.755,15.318-13.927,19.728c-16.319,10.028-30.811,19.658-44.267,33.628c-5.75,5.97-26.498,17.966-21.158,28.646
							c-9.706-19.412-20.246-38.452-28.604-58.508c-6.874-16.495-17.36-40.703-3.996-56.854c4.156-5.022,10.694-8.11,13.452-14.021
							c4.979-10.67-4.054-23.168-6.329-33.487c-3.571-16.204,4.466-32.697,17.938-41.777c6.374-4.297,13.305-9.036,15.524-16.396
							c2.425-8.035-1.258-16.662-2.146-24.671c-0.819-7.383-0.745-15.052-0.148-22.444c0.423-5.221,1.207-10.494,3.364-15.267
							c4.104-9.075,13.678-12.729,21.307-18.269c18.16-13.188,13.832-33.597,23.989-51.013
							C1706.051,968.586,1718.483,973.298,1730.805,975.575z"/>
					</defs>
					<clipPath id="SVGID_11_">
						<use xlink:href="#SVGID_10_"  overflow="visible"/>
					</clipPath>
					<g clip-path="url(#SVGID_11_)">
						<path fill="none" stroke="#3DC8E8" stroke-width="5" stroke-miterlimit="10" d="M1637.332,1355.719
							c6.651-65.313,24.156-129.082,48.097-190.086c22.839-58.193,49.254-115.922,82.699-168.838
							c11.051-17.482,22.948-34.44,35.874-50.594"/>
						<path fill="none" stroke="#3DC8E8" stroke-width="5" stroke-miterlimit="10" d="M1838.281,1042.025
							c-33.75,5.127-66.828,14.662-98.128,28.29c-7.941,3.457-12.134,4.179-19.168,9.229"/>
						<path fill="none" stroke="#3DC8E8" stroke-width="5" stroke-miterlimit="10" d="M1692.857,1145.511
							c34.092-13.821,71.046-20.54,107.82-19.601"/>
						<path fill="none" stroke="#3DC8E8" stroke-width="5" stroke-miterlimit="10" d="M1665.039,1226.093
							c32.916-19.087,70.644-29.799,108.678-30.854"/>
						<path fill="none" stroke="#3DC8E8" stroke-width="5" stroke-miterlimit="10" d="M1722.959,1077.729
							c4.277-34.409,2.226-69.598-6.024-103.276"/>
						<path fill="none" stroke="#3DC8E8" stroke-width="5" stroke-miterlimit="10" d="M1693.778,1142.784
							c-8.492-33.441-23.938-65.101-45.068-92.377"/>
						<path fill="none" stroke="#3DC8E8" stroke-width="5" stroke-miterlimit="10" d="M1662.709,1228.091
							c-0.173-9.864-1.9-19.699-5.101-29.032c-3.723-10.855-9.381-20.935-15.214-30.817c-4.201-7.118-8.51-14.172-12.923-21.16"/>
					</g>
				</g>
			</g>
			<polygon fill="#EFB126" points="1559.641,1333.099 1722.924,1333.099 1694.277,1496.504 1588.286,1496.504 			"/>
			<rect x="1539.65" y="1287.233" fill="#FFC73C" width="203.265" height="45.865"/>
			<polygon opacity="0.1" fill="#231F20" enable-background="new    " points="1719.125,1354.768 1563.439,1354.768 
				1559.641,1333.099 1722.924,1333.099 			"/>
		</g>
		<path fill="#3DC8E8" d="M967.666,1426.738c4.898-0.836,9.806-1.646,14.722-2.415c23.896-3.75,47.696-8.2,71.365-13.348
			c46.868-10.189,94.015-18.943,141.729-23.462c5.058-0.479,10.117-0.91,15.183-1.294c21.392-1.614,43.806-2.141,63.385,8.085
			c19.58,10.229,35.154,34.426,30.372,57.754c-3.359,16.39-15.893,28.725-29.816,34.942s-29.255,7.301-44.293,8.313
			c-48.716,3.278-97.431,6.559-146.146,9.838c-24.12,1.607-48.237,3.274-72.354,4.951c-23.031,1.602-46.411,4.854-69.506,4.83
			c-9.771-0.01-20.675-1.842-28.884-8.358c-11.411-9.063-18.279-28.354-19.384-43.429c-0.573-7.827,0.953-17.332,6.949-22.177
			c3.21-2.594,7.291-3.386,11.22-4.107C930.721,1433.454,949.144,1429.9,967.666,1426.738z"/>
		<path fill="#F8A17A" d="M913.016,1500.968c-11.78,2.434-20.986,12.776-32.711,16.242c-8.367,2.472-17.322,1.151-25.361-1.864
			c-7.392-2.772-14.91-4.256-22.499-6.687c-5.915-1.895-13.899-5.882-20.254-4.56c-16.652,3.467-33.259,15.316-48.353,23.011
			c-3.396,1.729-7.112,3.512-10.855,2.802s-6.863-5.247-4.734-8.406c-4.342,4.057-10.092,12.171-17.098,9.024
			c-2.865-1.287-4.593-5.083-3.005-7.792c-2.408,2.641-4.938,5.367-8.261,6.68c-3.324,1.313-7.686,0.742-9.644-2.247
			c-0.922-1.407-1.199-3.139-1.283-4.818c-0.286-5.779,1.458-11.489,3.868-16.75c11.889-25.945,38.773-45.192,61.649-60.651
			c4.046-2.734,8.17-5.505,12.84-6.932c4.18-1.276,8.612-1.418,12.983-1.438c28.368-0.13,56.753,4.457,83.637,13.515
			c5.816,1.959,12.222,0.291,18.021-0.796c4.295-0.805,8.779-1.602,12.975-0.376c4.69,1.37,8.329,5.088,11.188,9.054
			c5.256,7.293,9.273,16.947,8.646,26.107c-0.478,6.957-1.004,14.462-9.189,15.921c-3.317,0.594-6.731,0.228-10.084,0.576
			C914.652,1500.67,913.827,1500.801,913.016,1500.968z"/>
		<path fill="#DBCDFE" d="M1775.797,1557.071H45.685c-17.625,0-31.912-13.621-31.912-30.423l0,0
			c0-16.803,14.288-30.422,31.912-30.422h1730.112c17.624,0,31.912,13.619,31.912,30.422l0,0
			C1807.709,1543.45,1793.421,1557.071,1775.797,1557.071z"/>
		<g>
			<path fill="#DBCDFE" d="M425.645,471.671h-64.631c-27.479,0-49.96,22.482-49.96,49.96l0,0c0,16.99,8.601,32.063,21.659,41.1
				v35.162l35.961-26.302h56.971c27.478,0,49.96-22.481,49.96-49.96l0,0C475.605,494.154,453.122,471.671,425.645,471.671z"/>
			<circle fill="#FFFFFF" cx="357.129" cy="521.632" r="7.582"/>
			<circle fill="#FFFFFF" cx="393.328" cy="521.632" r="7.581"/>
			<circle fill="#FFFFFF" cx="429.529" cy="521.632" r="7.581"/>
		</g>
		<g>
			<path fill="#DBCDFE" d="M835.306,480.983H710.342c-6.601,0-12-5.4-12-12v-75.392c0-6.6,5.399-12,12-12h124.964
				c6.6,0,12,5.4,12,12v75.392C847.306,475.583,841.906,480.983,835.306,480.983z"/>
			<path fill="none" stroke="#FFFFFF" stroke-width="4" stroke-miterlimit="10" d="M700.747,384.783l65.221,63.24
				c3.734,3.621,9.979,3.621,13.713,0l65.22-63.24"/>
			
				<line fill="none" stroke="#FFFFFF" stroke-width="4" stroke-miterlimit="10" x1="700.747" y1="477.779" x2="754.262" y2="436.673"/>
			
				<line fill="none" stroke="#FFFFFF" stroke-width="4" stroke-miterlimit="10" x1="844.901" y1="477.779" x2="791.387" y2="436.673"/>
		</g>
		<g>
			<g>
				<path fill="#DBCDFE" d="M581.95,868.833H433.875c-6.628,0-12-5.372-12-12v-95.521c0-6.628,5.372-12,12-12H581.95
					c6.627,0,12,5.372,12,12v95.521C593.95,863.461,588.578,868.833,581.95,868.833z"/>
			</g>
			<g>
				<polygon fill="#DBCDFE" points="507.912,906.599 538.084,865.908 477.741,865.908 				"/>
			</g>
			<g>
				<path fill="#FFFFFF" d="M553.185,824.441h-7.444v-20.381l0.073-3.349l0.12-3.662c-1.236,1.237-2.095,2.048-2.577,2.434
					l-4.047,3.252l-3.59-4.481l11.347-9.034h6.119L553.185,824.441L553.185,824.441z"/>
			</g>
			<g>
				<path fill="#FFFFFF" d="M498.001,788.036h-24.422c-10.382,0-18.877,8.495-18.877,18.878l0,0c0,6.42,3.25,12.115,8.185,15.529
					v13.287l13.588-9.938h21.527c10.383,0,18.878-8.495,18.878-18.877l0,0C516.879,796.531,508.384,788.036,498.001,788.036z"/>
			</g>
		</g>
	</g>
	<rect x="-99" y="1557.071" fill="#FFFFFF" width="2005" height="276.067"/>
	<path fill="#F5F5FE" d="M64.839,158.083c-0.949-5.74,6.648-17.318,14.938-17.132c3.298,0.074,6.522,0.93,9.813,0.769
		c8.771-0.428,13.319-7.258,16.7-12.913c3.381-5.655,10.112-12.103,18.662-10.668c12.309,2.065,18.512,18.307,32.502,6.113
		c9.157-7.981,9.846-19.142,20.216-26.882c7.118-5.313,18.692-8.459,28.237-5.524c12.454,3.831,17.087,16.179,30.348,18.328
		c14.688,2.38,25.251-8.795,29.939-16.854c5.69-9.779,7.804-20.351,12.678-30.304c4.511-9.212,13.583-21.552,29.837-21.285
		c13.744,0.227,19.8,8.927,26.547,15.834c8.774,8.983,27.009,41.239,47.457,37.35c7.974-1.517,11.956-7.85,19.148-10.685
		c11.567-4.559,26.311,1.708,33.279,9.591c6.968,7.883,9.729,17.396,17.605,24.854c2.037,1.929,4.511,3.75,7.71,4.626
		c11,3.01,21.239-6.249,33.016-6.938c8.128-0.475,15.67,3.344,20.341,8.002c4.671,4.658,7.22,10.161,10.794,15.269
		c0.995,1.422,2.125,2.861,3.925,3.826c5.166,2.77,12.436,0.435,18.765-0.655c15.637-2.69,33.399,4.487,37.811,15.279
		L64.839,158.083L64.839,158.083z"/>
	<path fill="#F5F5FE" d="M1714.084,102.564c0.837-5.059-5.86-15.265-13.168-15.101c-2.905,0.065-5.748,0.819-8.648,0.677
		c-7.732-0.377-11.74-6.397-14.721-11.382c-2.981-4.985-8.914-10.668-16.449-9.403c-10.85,1.821-16.318,16.137-28.65,5.389
		c-8.072-7.036-8.678-16.874-17.818-23.696c-6.274-4.683-16.479-7.457-24.89-4.869c-10.979,3.376-15.063,14.261-26.751,16.155
		c-12.947,2.098-22.258-7.753-26.392-14.857c-5.015-8.619-6.878-17.938-11.174-26.711c-3.977-8.12-11.974-18.997-26.3-18.761
		c-12.115,0.2-17.453,7.869-23.4,13.957c-7.734,7.918-23.807,36.351-41.831,32.923c-7.028-1.337-10.538-6.919-16.88-9.418
		c-10.195-4.018-23.19,1.505-29.333,8.454c-6.144,6.949-8.577,15.334-15.52,21.908c-1.796,1.701-3.976,3.306-6.796,4.078
		c-9.695,2.654-18.722-5.508-29.103-6.115c-7.164-0.419-13.813,2.947-17.931,7.054c-4.117,4.106-6.363,8.957-9.515,13.458
		c-0.877,1.253-1.873,2.522-3.459,3.373c-4.554,2.441-10.961,0.383-16.54-0.577c-13.783-2.372-29.44,3.955-33.328,13.467h458.596
		V102.564z"/>
</g>
</svg>
